<svg xmlns="http://www.w3.org/2000/svg" width="1em" height="1em" viewBox="0 0 24 24">
	<path d="M0 0h24v24H0z" fill="none" />
	<path fill="#333" d="M14.305 9q-.345 0-.575-.23t-.23-.587V4.817q0-.357.234-.587t.58-.23h4.88q.347 0 .576.23t.23.587v3.366q0 .358-.234.587q-.234.23-.58.23zm-9.5 3q-.345 0-.575-.23T4 11.2V4.8q0-.34.234-.57t.58-.23h4.88q.347 0 .576.23t.23.57v6.4q0 .34-.234.57t-.58.23zm9.5 8q-.345 0-.575-.23t-.23-.57v-6.4q0-.34.234-.57t.58-.23h4.88q.347 0 .576.23t.23.57v6.4q0 .34-.234.57t-.58.23zm-9.5 0q-.345 0-.575-.23T4 19.183v-3.366q0-.357.234-.587t.58-.23h4.88q.347 0 .576.23t.23.587v3.366q0 .358-.234.587q-.234.23-.58.23z" />
</svg>
